PathFileType	4	(X/Y/Z)	./resultDataOpenSim/trcMotMarkerGrf/sub09/qtm-02-01.trc
DataRate	CameraRate	NumFrames	NumMarkers	Units	OrigDataRate	OrigDataStartFrame	OrigNumFrames
250.000000	250.000000	13	24	m	250.000000	183	486
Frame#	Time	L.Toe.Tip			R.Toe.Tip			L.Ankle.Lat			R.Ankle.Lat			L.Ankle.Med			R.Ankle.Med			L.Heel			R.Heel			L.Knee.Lat			R.Knee.Lat			L.Knee.Med			R.Knee.Med			L.Thigh.Upper			R.Thigh.Upper			L.ASIS			R.ASIS			V.Sacral			L.Acromium			R.Acromium			C7			L.Elbow			R.Elbow			L.Wrist.Lat			R.Wrist.Lat
		X1	Y1	Z1	X2	Y2	Z2	X3	Y3	Z3	X4	Y4	Z4	X5	Y5	Z5	X6	Y6	Z6	X7	Y7	Z7	X8	Y8	Z8	X9	Y9	Z9	X10	Y10	Z10	X11	Y11	Z11	X12	Y12	Z12	X13	Y13	Z13	X14	Y14	Z14	X15	Y15	Z15	X16	Y16	Z16	X17	Y17	Z17	X18	Y18	Z18	X19	Y19	Z19	X20	Y20	Z20	X21	Y21	Z21	X22	Y22	Z22	X23	Y23	Z23	X24	Y24	Z24

183	0.728	0.1555012	0.015464356	0.027832795	-0.59146575	0.060573574	0.099944665	0.0093217334	0.046406058	-0.018105426	-0.64357024	0.20310198	0.1393615	0.025215713	0.068469052	0.078310096	-0.59267652	0.20283381	0.055190315	-0.065194979	0.012354533	0.025289272	-0.68740057	0.24107305	0.076841818	0.049429553	0.45509143	-0.078156723	-0.25571738	0.42733059	0.22106388	0.043249686	0.46069053	0.047795228	-0.24162998	0.4003525	0.089978887	-0.15807791	0.83246434	-0.13620385	-0.21555542	0.81888419	0.23244806	-0.090513121	0.91776257	-0.066477787	-0.10568979	0.90413199	0.17388959	-0.2725014	0.95747886	0.036440352	-0.13957483	1.3568693	-0.1265335	-0.15829116	1.3802952	0.2044532	-0.21499764	1.4161563	0.036948124	-0.28536648	1.0212021	-0.17086411	-0.27265181	1.0344012	0.29586541	-0.17927627	0.78515355	-0.22749329	-0.10521194	0.81709054	0.30906047
184	0.732	0.15551404	0.015402149	0.027841159	-0.58606637	0.062765113	0.10075743	0.0094899121	0.046210719	-0.018164286	-0.63351675	0.20752211	0.13994411	0.025396337	0.068339772	0.078301984	-0.58227715	0.20587923	0.055964818	-0.065203657	0.012362538	0.025199396	-0.67621358	0.24674106	0.077466688	0.053301458	0.4543968	-0.078194874	-0.2441545	0.427037	0.22160677	0.046507911	0.45976334	0.047551487	-0.22947339	0.39964671	0.090515779	-0.15278251	0.83353536	-0.13656916	-0.20894747	0.81887442	0.2320206	-0.084275224	0.91835737	-0.066845382	-0.099598049	0.90461131	0.17351033	-0.26608954	0.95828827	0.036957085	-0.1328131	1.357428	-0.12679481	-0.15179658	1.3808083	0.20422965	-0.20834638	1.4169261	0.03653565	-0.27810671	1.0215087	-0.1715672	-0.26674337	1.0352024	0.29569106	-0.17072467	0.78580928	-0.22779266	-0.10032681	0.81706567	0.30905054
185	0.736	0.15549799	0.015354416	0.02784983	-0.58001239	0.065093327	0.10168428	0.0096389965	0.04604022	-0.018230665	-0.62326918	0.21167871	0.14049344	0.025510916	0.068246211	0.078255399	-0.57171751	0.20886432	0.056710489	-0.065237347	0.012357376	0.025084085	-0.66484645	0.25225021	0.078306902	0.05698416	0.45375978	-0.078173125	-0.23238267	0.42678804	0.22183587	0.049390489	0.45898742	0.047293847	-0.21732167	0.39926459	0.090894778	-0.14748901	0.83460663	-0.13693327	-0.20250696	0.81904879	0.23160224	-0.078076442	0.91899169	-0.067141892	-0.093620228	0.90520491	0.17320512	-0.25989183	0.95935252	0.036579165	-0.12607014	1.3580573	-0.12703621	-0.14538572	1.3813899	0.2040308	-0.20176252	1.4177989	0.036193564	-0.27095418	1.0218688	-0.17222573	-0.26085075	1.0360455	0.29556028	-0.16212548	0.78653729	-0.2280536	-0.095401275	0.81711026	0.30905071
186	0.74	0.15545979	0.015318295	0.027867707	-0.57309782	0.067606972	0.1027786	0.0097500347	0.045913268	-0.018285374	-0.61281594	0.21561409	0.141004	0.025577187	0.06818176	0.078202094	-0.56096871	0.21185169	0.057419416	-0.065292804	0.012347096	0.024980302	-0.65337619	0.25763092	0.07936586	0.060329096	0.45330987	-0.078233217	-0.22042359	0.42661238	0.22179548	0.051967566	0.45838635	0.04706515	-0.20523255	0.39921386	0.091112916	-0.14219668	0.83567807	-0.13729676	-0.19619877	0.81940843	0.23119237	-0.071865736	0.91969041	-0.067337854	-0.087747984	0.90591163	0.17296933	-0.25381995	0.96053611	0.035897885	-0.11935179	1.358765	-0.12726156	-0.13906666	1.3820608	0.20384995	-0.19521307	1.4187459	0.035875843	-0.26383127	1.0222915	-0.17289774	-0.25497356	1.0369476	0.29546484	-0.1534862	0.78734658	-0.22827351	-0.0904968	0.81721782	0.30905229
187	0.744	0.15541022	0.01529229	0.027897373	-0.56513892	0.070325682	0.10406327	0.0098218329	0.045833786	-0.018322019	-0.602131	0.21936775	0.14146743	0.025619492	0.068138563	0.078160119	-0.55006545	0.21495049	0.058032719	-0.065359767	0.012343035	0.024906241	-0.64192276	0.26288718	0.080559423	0.063241586	0.45321634	-0.078584451	-0.20829898	0.42653815	0.22153282	0.054365094	0.45797047	0.04691546	-0.193223	0.39946932	0.091175627	-0.13690466	0.83674957	-0.13766012	-0.18999744	0.81993647	0.23079742	-0.065611912	0.92046217	-0.067418121	-0.081971497	0.90672461	0.17279333	-0.24783189	0.9617668	0.035236738	-0.11265381	1.3595496	-0.1274678	-0.13283474	1.3828364	0.20368138	-0.18867473	1.4197512	0.035555591	-0.25669599	1.0227875	-0.17360997	-0.24911827	1.0379267	0.29539454	-0.14481438	0.78824481	-0.22844781	-0.085707973	0.8173746	0.3090401
188	0.748	0.15536036	0.015273706	0.027931987	-0.5560672	0.073239015	0.10551926	0.009868458	0.045790853	-0.018344861	-0.59119024	0.22297109	0.14191806	0.025655383	0.068108696	0.07812917	-0.53907142	0.21825109	0.058476701	-0.065427236	0.012352566	0.024857204	-0.63058992	0.26794552	0.081728575	0.065827655	0.45344191	-0.079239669	-0.19602652	0.42659178	0.22108966	0.056654052	0.45771138	0.046834674	-0.18125554	0.39999181	0.091100996	-0.13161255	0.83782106	-0.13802356	-0.18389905	0.82060647	0.23042309	-0.059367333	0.92129504	-0.067420506	-0.076278626	0.90763426	0.17266398	-0.24194351	0.96302016	0.034636735	-0.10596479	1.3604079	-0.12764866	-0.12667547	1.3837207	0.20352247	-0.18214799	1.4208116	0.03523243	-0.24954667	1.0233665	-0.17437178	-0.24328956	1.0389962	0.2953341	-0.13611625	0.78923929	-0.22857367	-0.081120502	0.8175686	0.30899761
189	0.752	0.15531761	0.015258213	0.027957718	-0.54593995	0.076316707	0.10710168	0.0099069237	0.045767655	-0.018363858	-0.57998966	0.22645266	0.14243915	0.025695758	0.068086252	0.078096482	-0.5280119	0.22176039	0.058723656	-0.065486632	0.012377361	0.024820744	-0.61932745	0.27260966	0.082669356	0.06832601	0.45369101	-0.079912897	-0.18361825	0.42679972	0.22050278	0.058843411	0.45755223	0.046773167	-0.16927666	0.40075566	0.090900281	-0.12632029	0.83889253	-0.13838709	-0.17790805	0.8213956	0.23006704	-0.053250527	0.92217263	-0.067423506	-0.070658641	0.9086343	0.1725677	-0.23618134	0.96429317	0.034021641	-0.099276746	1.3613396	-0.12780048	-0.12058221	1.3847106	0.20336826	-0.17565081	1.4219349	0.034915651	-0.24239655	1.0240308	-0.17520497	-0.23747614	1.0401602	0.29526748	-0.12739944	0.79033897	-0.22865287	-0.076762222	0.817805	0.3089178
190	0.756	0.15528373	0.015242347	0.027962512	-0.53489542	0.079490704	0.10877218	0.0099465388	0.045751288	-0.018389106	-0.56854315	0.22985021	0.14308796	0.025748159	0.068069547	0.078050106	-0.5168511	0.22538233	0.058818712	-0.065533816	0.012415095	0.024790766	-0.60793761	0.27663231	0.083216857	0.070873822	0.45370487	-0.080317232	-0.1710829	0.42718876	0.21980784	0.060924682	0.45743264	0.046687385	-0.15726926	0.40174796	0.090556964	-0.12102795	0.83996399	-0.13875064	-0.1720252	0.82228849	0.22972473	-0.047344631	0.92309294	-0.067480559	-0.065100745	0.90972314	0.17249354	-0.23050477	0.96559611	0.033361535	-0.092584635	1.3623482	-0.12791984	-0.11455764	1.3858029	0.20321306	-0.16921269	1.4231378	0.03461438	-0.2352574	1.0247725	-0.1761459	-0.23163192	1.0414124	0.29518091	-0.11867264	0.79155468	-0.22868845	-0.072559974	0.81812245	0.30881336
191	0.76	0.15525646	0.015225342	0.027943892	-0.52307481	0.082659468	0.11052601	0.0099860521	0.045736658	-0.018426357	-0.55687213	0.23320597	0.14377393	0.025817374	0.068059936	0.077987852	-0.50552299	0.22895399	0.058838049	-0.065570368	0.012463165	0.024766431	-0.59629614	0.27990395	0.083340732	0.073427706	0.45348571	-0.080434419	-0.15843837	0.42778132	0.21904525	0.062907016	0.45731024	0.04655545	-0.14527197	0.40294891	0.090045624	-0.11573557	0.84103546	-0.1391142	-0.16623871	0.82327612	0.22939477	-0.041614039	0.92407026	-0.067562989	-0.05959044	0.910899	0.17242998	-0.22471575	0.96696894	0.032799981	-0.085880771	1.3634396	-0.12800549	-0.10860033	1.3869966	0.20305854	-0.16285971	1.4244352	0.034334846	-0.22813743	1.0255836	-0.17720789	-0.22568909	1.0427405	0.29506495	-0.10993964	0.79289593	-0.22867719	-0.068369422	0.81858312	0.30871329
192	0.764	0.15523305	0.015208342	0.027909646	-0.51056262	0.085744411	0.11238775	0.010018449	0.045723699	-0.018475787	-0.5450005	0.23653415	0.14422279	0.025904434	0.068058754	0.077915807	-0.49396712	0.2323019	0.058833228	-0.065601223	0.012520779	0.024745944	-0.58445881	0.28253456	0.083161293	0.075895903	0.45317926	-0.080413364	-0.14573819	0.42858515	0.2182672	0.064825497	0.4571719	0.046376908	-0.13333837	0.4043281	0.089372173	-0.11044318	0.84210694	-0.13947775	-0.16052064	0.82435436	0.22907936	-0.035921482	0.92512074	-0.067563129	-0.054112022	0.91215981	0.17236139	-0.21845322	0.96848337	0.032711073	-0.079156216	1.3646169	-0.12806113	-0.10269784	1.3882886	0.20291212	-0.15659281	1.4258264	0.034084425	-0.22103665	1.0264748	-0.17833337	-0.21964419	1.0441418	0.29492643	-0.10119471	0.79436599	-0.228609	-0.064093198	0.81922977	0.30863856
193	0.768	0.15521185	0.015192841	0.027871113	-0.49741181	0.088720348	0.11437434	0.010038251	0.045713181	-0.018534027	-0.53294288	0.23978074	0.1441699	0.026005706	0.068066545	0.077840586	-0.48214403	0.23529022	0.058825456	-0.065630636	0.012586707	0.024726629	-0.57250802	0.2847297	0.082866494	0.078223095	0.45289245	-0.080385793	-0.13309435	0.42958651	0.21753764	0.066724385	0.45702911	0.046166774	-0.12146633	0.40585931	0.088598473	-0.10515088	0.8431784	-0.13984127	-0.1548357	0.82551997	0.22878446	-0.03014804	0.9262465	-0.067385403	-0.048651914	0.91350654	0.17227179	-0.21143485	0.97018637	0.033536181	-0.072407934	1.3658775	-0.12809059	-0.096832218	1.3896691	0.20277798	-0.15038444	1.4272949	0.033879304	-0.21395185	1.0274743	-0.17943212	-0.21362306	1.0456366	0.29478873	-0.092426485	0.79595992	-0.22847556	-0.059742153	0.82005894	0.30858402
194	0.772	0.1551912	0.015179544	0.027834909	-0.48370935	0.091579896	0.11646662	0.010042598	0.045705624	-0.018596244	-0.52068605	0.24281879	0.14364755	0.026112386	0.068083774	0.077763201	-0.47004613	0.23785174	0.058829424	-0.065661536	0.012657982	0.024705639	-0.56044085	0.2866382	0.082610784	0.080359068	0.45265624	-0.08043323	-0.12065097	0.43076439	0.21691169	0.068634238	0.4569021	0.045942424	-0.10961932	0.40753099	0.087855369	-0.099858862	0.8442498	-0.1402048	-0.14915068	0.8267716	0.22851586	-0.024321158	0.92744849	-0.067101259	-0.043201167	0.9149388	0.17215078	-0.20384722	0.97202551	0.03532429	-0.065646142	1.3672157	-0.12809575	-0.090990616	1.3911252	0.20265241	-0.14420136	1.4288226	0.033733268	-0.20689728	1.0285999	-0.18047495	-0.20778991	1.0472553	0.29465526	-0.083627783	0.79767079	-0.22827835	-0.05537214	0.82103862	0.30853066
195	0.776	0.15516862	0.015168263	0.027799929	-0.46957951	0.094302527	0.11862525	0.010026448	0.045702062	-0.018657533	-0.50819695	0.24550882	0.14300897	0.026211633	0.068110565	0.077679878	-0.45770252	0.23999299	0.058864593	-0.065697662	0.012732615	0.024676467	-0.54823599	0.28830163	0.08247356	0.082255764	0.45246121	-0.080600188	-0.10850124	0.43212011	0.21640236	0.070553275	0.45680359	0.045712831	-0.097851659	0.409345	0.087334168	-0.094567262	0.8453211	-0.14056839	-0.143432	0.82811374	0.22827697	-0.018612464	0.92875232	-0.066988463	-0.037757733	0.91645068	0.17199823	-0.19635566	0.97387396	0.037445193	-0.05889079	1.3686262	-0.12808108	-0.085169904	1.3926476	0.20252587	-0.13800291	1.4303892	0.033597541	-0.19989086	1.0298503	-0.18146722	-0.2022302	1.0490125	0.29450032	-0.074803158	0.79949675	-0.22802909	-0.051016548	0.82213777	0.3084683
